#!OML:ASF F:\VICON\USERDATA\INSTALL\rory3\rory3.ASF
:FULLY-SPECIFIED
:DEGREES
4431
root 0.76989 17.9745 -3.50033 20.939 -3.28916 13.6763
lowerback 20.1185 -0.612211 1.93925
upperback 6.91669 -0.0115576 7.37855
thorax -3.74287 -0.054524 6.86848
lowerneck -8.49299 -12.2412 -10.3686
upperneck 24.9915 -17.4986 9.05808
head 11.2396 -7.90779 2.64573
rclavicle -4.13472e-014 -1.11319e-014
rhumerus 6.13108 8.17345 -84.6848
rradius 44.2514
rwrist -46.3583
rhand -36.5306 -26.5914
rfingers 7.12502
rthumb -9.62178 -56.3516
lclavicle -4.13472e-014 -1.11319e-014
lhumerus -2.8018 -42.2913 97.8751
lradius 49.5023
lwrist 10.151
lhand -15.8771 51.2125
lfingers 7.12502
lthumb 10.3187 -1719.06
rfemur -45.8061 -5.68734 9.9108
rtibia 37.6792
rfoot -13.1656 -8.45597
rtoes 14.5533
lfemur -16.4809 -7.52671 -21.3119
ltibia 24.8373
lfoot 4.57152 -10.8001
ltoes -22.2422
4432
root 0.759735 17.9721 -3.4791 21.1095 -3.45175 13.4884
lowerback 19.8681 -0.704324 1.84032
upperback 6.91862 -0.17108 7.29743
thorax -3.59465 -0.13513 6.86399
lowerneck -8.83822 -12.1548 -10.254
upperneck 25.3234 -17.3918 8.97563
head 11.4005 -7.83786 2.59428
rclavicle 6.04305e-014 2.06736e-014
rhumerus 7.35777 6.8721 -83.6011
rradius 43.9697
rwrist -46.475
rhand -37.3071 -25.6437
rfingers 7.12502
rthumb -10.3709 -55.3679
lclavicle 6.04305e-014 2.06736e-014
lhumerus -1.27096 -42.6932 97.4128
lradius 50.1933
lwrist 10.2466
lhand -16.5966 51.3474
lfingers 7.12502
lthumb 9.62454 -1718.89
rfemur -45.995 -5.73626 10.2375
rtibia 37.6631
rfoot -13.1403 -8.25448
rtoes 15.1126
lfemur -16.6046 -7.37824 -21.2396
ltibia 24.9782
lfoot 4.06926 -10.4567
ltoes -21.9712
4433
root 0.747906 17.9699 -3.46127 21.1842 -3.39272 13.3544
lowerback 19.7511 -0.88795 1.76112
upperback 6.89957 -0.430555 7.26074
thorax -3.52642 -0.2634 6.92466
lowerneck -8.93798 -12.0378 -10.2438
upperneck 25.3577 -17.2623 9.09374
head 11.4296 -7.76541 2.64991
rclavicle -9.54166e-015 7.95139e-015
rhumerus 8.59215 5.53496 -82.5657
rradius 43.5923
rwrist -46.1893
rhand -37.5444 -25.2406
rfingers 7.12502
rthumb -10.5998 -54.9533
lclavicle -9.54166e-015 7.95139e-015
lhumerus 0.251516 -42.9889 96.8599
lradius 50.9237
lwrist 10.4099
lhand -16.9417 51.4477
lfingers 7.12502
lthumb 9.2916 -1718.78
rfemur -46.0023 -5.96946 10.5785
rtibia 37.6336
rfoot -13.1277 -8.04364
rtoes 14.9445
lfemur -16.6539 -7.37172 -21.1619
ltibia 25.1411
lfoot 3.55469 -10.0919
ltoes -21.5174
4434
root 0.736024 17.9701 -3.44457 21.3426 -3.31515 13.1933
lowerback 19.6374 -1.04066 1.77522
upperback 6.8096 -0.628411 7.2081
thorax -3.54434 -0.358545 6.90032
lowerneck -9.0067 -11.8994 -10.2749
upperneck 25.4244 -17.1148 9.26201
head 11.4724 -7.68336 2.73483
rclavicle 2.8625e-014 -2.70347e-014
rhumerus 9.79584 3.94249 -81.6315
rradius 43.164
rwrist -45.4455
rhand -37.2182 -25.6365
rfingers 7.12502
rthumb -10.2851 -55.365
lclavicle 2.8625e-014 -2.70347e-014
lhumerus 1.7262 -43.0988 96.3235
lradius 51.5464
lwrist 9.74994
lhand -15.9052 51.3375
lfingers 7.12502
lthumb 10.2916 -1718.93
rfemur -46.092 -6.19879 10.9518
rtibia 37.5907
rfoot -13.05 -7.90567
rtoes 14.7764
lfemur -16.7824 -7.36243 -21.0427
ltibia 25.2408
lfoot 3.16682 -9.52881
ltoes -20.5321
4435
root 0.722715 17.9735 -3.42531 21.5149 -3.29991 12.9902
lowerback 19.5348 -1.13068 1.84103
upperback 6.69622 -0.734697 7.145
thorax -3.60447 -0.407657 6.81443
lowerneck -9.09483 -11.7898 -10.4688
upperneck 25.6442 -17.0262 9.54475
head 11.6138 -7.6239 2.8745
rclavicle 2.8625e-014 1.43125e-014
rhumerus 10.9389 2.25083 -80.7936
rradius 42.739
rwrist -44.958
rhand -37.0151 -25.7764
rfingers 7.12502
rthumb -10.0892 -55.5145
lclavicle 2.8625e-014 1.43125e-014
lhumerus 3.00182 -43.1716 95.9114
lradius 52.2674
lwrist 8.91106
lhand -14.7493 51.3886
lfingers 7.12502
lthumb 11.4066 -1718.94
rfemur -46.2136 -6.30401 11.32
rtibia 37.5904
rfoot -13.0403 -7.76484
rtoes 14.8389
lfemur -16.8047 -7.27288 -20.9157
ltibia 25.1412
lfoot 2.7767 -8.76812
ltoes -20.4729
4436
root 0.707186 17.9805 -3.39813 21.3368 -2.92497 12.961
lowerback 19.7493 -1.42074 1.90915
upperback 6.62557 -1.0784 7.09276
thorax -3.75786 -0.571643 6.80615
lowerneck -9.06181 -11.6196 -10.6603
upperneck 25.7488 -16.8669 9.89078
head 11.6842 -7.53581 3.05776
rclavicle 3.18055e-014 2.06736e-014
rhumerus 12.1916 0.551447 -80.2135
rradius 42.1002
rwrist -44.2174
rhand -36.8374 -25.7561
rfingers 7.12502
rthumb -9.91776 -55.5025
lclavicle 3.18055e-014 2.06736e-014
lhumerus 4.07162 -43.2485 95.4942
lradius 53.0736
lwrist 9.0815
lhand -15.2099 51.6583
lfingers 7.12502
lthumb 10.9623 -1718.65
rfemur -45.8107 -6.6286 11.5483
rtibia 37.5858
rfoot -13.2393 -7.69643
rtoes 14.7098
lfemur -16.4881 -7.35829 -20.8987
ltibia 25.182
lfoot 1.95087 -7.90461
ltoes -21.444
4437
root 0.687028 17.9925 -3.36638 20.7864 -1.79933 13.218
lowerback 20.457 -2.03061 1.97809
upperback 6.46278 -1.78211 7.15628
thorax -4.22433 -0.904548 7.04403
lowerneck -8.92037 -11.4124 -10.7521
upperneck 25.8057 -16.5829 9.89972
head 11.652 -7.42533 3.132
rclavicle 9.54166e-015 1.59028e-014
rhumerus 13.4061 -1.04033 -79.7199
rradius 41.3097
rwrist -43.2209
rhand -36.8783 -25.8644
rfingers 7.12502
rthumb -9.95726 -55.6089
lclavicle 9.54166e-015 1.59028e-014
lhumerus 4.70063 -43.1701 95.4445
lradius 53.8103
lwrist 10
lhand -16.324 51.506
lfingers 7.12502
lthumb 9.88754 -1718.75
rfemur -44.7726 -7.41298 11.5812
rtibia 37.6279
rfoot -13.7427 -7.87705
rtoes 14.5143
lfemur -15.824 -7.91735 -20.957
ltibia 25.2606
lfoot 0.817347 -7.05717
ltoes -22.8413
4438
root 0.687111 17.9797 -3.38156 21.3205 -2.24153 12.892
lowerback 20.5316 -1.98309 1.90309
upperback 6.08601 -1.70929 7.12846
thorax -4.67887 -0.858661 7.05923
lowerneck -8.84277 -11.2483 -10.8493
upperneck 25.9482 -16.3897 9.99746
head 11.6866 -7.34102 3.22052
rclavicle 4.13472e-014 5.88403e-014
rhumerus 14.3474 -2.32207 -79.1615
rradius 40.8253
rwrist -42.3142
rhand -37.1244 -26.1
rfingers 7.12502
rthumb -10.1946 -55.833
lclavicle 4.13472e-014 5.88403e-014
lhumerus 5.15848 -43.0215 95.444
lradius 54.6116
lwrist 10.7292
lhand -16.242 51.3076
lfingers 7.12502
lthumb 9.96667 -1718.95
rfemur -45.665 -7.68569 12.1936
rtibia 37.6917
rfoot -13.2806 -7.34355
rtoes 14.1199
lfemur -16.4557 -7.45671 -20.9388
ltibia 25.4263
lfoot -0.260823 -5.50461
ltoes -24.4675
4439
root 0.69073 17.9681 -3.36579 21.8707 -3.07352 12.7647
lowerback 19.8612 -1.84012 1.83436
upperback 6.0356 -1.60745 6.74722
thorax -4.40844 -0.812827 6.6134
lowerneck -8.93462 -11.159 -10.6033
upperneck 25.9298 -16.3718 10.2384
head 11.6957 -7.28555 3.26876
rclavicle -3.33958e-014 7.31528e-014
rhumerus 15.2428 -3.45381 -78.8397
rradius 40.7627
rwrist -41.8095
rhand -37.5012 -26.3849
rfingers 7.12502
rthumb -10.5581 -56.0997
lclavicle -3.33958e-014 7.31528e-014
lhumerus 5.96025 -42.9118 94.8467
lradius 55.4292
lwrist 10.9841
lhand -15.8697 51.3142
lfingers 7.12502
lthumb 10.3259 -1718.96
rfemur -46.5465 -7.80416 12.4989
rtibia 37.794
rfoot -12.865 -6.58514
rtoes 13.7742
lfemur -16.9738 -6.8059 -21.3352
ltibia 25.5975
lfoot -1.44373 -4.04188
ltoes -25.0994
4440
root 0.684419 17.9612 -3.34598 21.9787 -3.47133 12.7789
lowerback 19.5668 -1.80393 1.81306
upperback 6.10314 -1.61121 6.38666
thorax -4.1943 -0.817069 6.20902
lowerneck -9.0846 -11.1466 -10.2044
upperneck 25.9331 -16.4371 10.2975
head 11.702 -7.26768 3.20973
rclavicle 2.54444e-014 6.04305e-014
rhumerus 16.1822 -4.80571 -78.7073
rradius 40.6348
rwrist -41.2985
rhand -37.9351 -26.59
rfingers 7.12502
rthumb -10.9766 -56.2831
lclavicle 2.54444e-014 6.04305e-014
lhumerus 6.74288 -42.7956 94.2772
lradius 56.1173
lwrist 10.7273
lhand -15.5424 51.4633
lfingers 7.12502
lthumb 10.6416 -1718.83
rfemur -46.7922 -7.90336 12.6281
rtibia 37.8846
rfoot -12.7052 -6.22536
rtoes 13.4391
lfemur -17.1502 -6.36151 -21.7394
ltibia 25.8941
lfoot -2.60531 -3.05753
ltoes -24.9389
4441
root 0.676666 17.9584 -3.32488 21.9358 -3.6141 12.9351
lowerback 19.5321 -1.82637 1.63144
upperback 6.08112 -1.6877 6.1778
thorax -4.19513 -0.853329 6.09998
lowerneck -9.08738 -11.1201 -9.99414
upperneck 25.9889 -16.4385 10.2635
head 11.7001 -7.25233 3.16509
rclavicle -6.36111e-015 1.43125e-014
rhumerus 17.1098 -6.065 -78.5492
rradius 40.3676
rwrist -40.5958
rhand -38.2882 -26.8756
rfingers 7.12502
rthumb -11.3173 -56.5503
lclavicle -6.36111e-015 1.43125e-014
lhumerus 7.1711 -42.5508 94.1408
lradius 56.7007
lwrist 10.382
lhand -15.3194 51.6846
lfingers 7.12502
lthumb 10.8567 -1718.62
rfemur -46.8134 -8.14789 12.6294
rtibia 37.991
rfoot -12.6674 -5.98502
rtoes 13.4961
lfemur -17.1644 -6.14845 -22.2044
ltibia 26.0244
lfoot -3.5976 -2.28319
ltoes -24.5539
4442
root 0.666343 17.9575 -3.3094 21.8725 -3.67024 13.0539
lowerback 19.6089 -1.89932 1.45491
upperback 6.04719 -1.81794 6.02309
thorax -4.25978 -0.914966 6.06649
lowerneck -9.09524 -11.0462 -9.90056
upperneck 26.0275 -16.3698 10.3028
head 11.7029 -7.20975 3.1765
rclavicle -5.24792e-014 9.38264e-014
rhumerus 18.0183 -7.00553 -78.4961
rradius 40.1368
rwrist -39.7871
rhand -38.6115 -27.2421
rfingers 7.12502
rthumb -11.629 -56.8994
lclavicle -5.24792e-014 9.38264e-014
lhumerus 7.48058 -42.231 93.9567
lradius 57.256
lwrist 10.2983
lhand -15.3642 51.8034
lfingers 7.12502
lthumb 10.8134 -1718.5
rfemur -46.7701 -8.40451 12.6729
rtibia 38.0734
rfoot -12.684 -5.69028
rtoes 14.0068
lfemur -17.1918 -5.91707 -22.6037
ltibia 26.0748
lfoot -4.18212 -1.48781
ltoes -24.8004
4443
root 0.64628 17.9569 -3.29946 21.7286 -3.7277 12.9414
lowerback 20.0777 -1.88553 1.03905
upperback 5.90173 -1.83615 6.20465
thorax -4.63795 -0.917401 6.54364
lowerneck -9.06764 -10.9889 -10.0851
upperneck 26.1088 -16.2287 10.1583
head 11.7143 -7.17971 3.17763
rclavicle 6.99722e-014 -7.15625e-014
rhumerus 18.4404 -7.32204 -77.9444
rradius 40.289
rwrist -39.5311
rhand -38.7505 -27.4358
rfingers 7.12502
rthumb -11.763 -57.0854
lclavicle 6.99722e-014 -7.15625e-014
lhumerus 7.34344 -41.5865 94.3524
lradius 57.8242
lwrist 10.3439
lhand -15.3354 51.8998
lfingers 7.12502
lthumb 10.8413 -1718.4
rfemur -46.6168 -8.37788 12.9068
rtibia 38.1092
rfoot -12.736 -5.55104
rtoes 14.3299
lfemur -17.1541 -5.42903 -22.7557
ltibia 26.0963
lfoot -4.61694 -0.694075
ltoes -26.8923
4444
root 0.630444 17.9554 -3.27483 21.7118 -4.06082 12.779
lowerback 19.8352 -1.83706 0.912184
upperback 6.01371 -1.82684 6.07442
thorax -4.39274 -0.919056 6.45286
lowerneck -9.10592 -10.9237 -9.94379
upperneck 26.0239 -16.17 10.223
head 11.6743 -7.13698 3.18659
rclavicle -4.6118e-014 -7.95139e-014
rhumerus 19.0151 -7.74997 -77.8258
rradius 40.43
rwrist -39.6349
rhand -38.6135 -27.1768
rfingers 7.12502
rthumb -11.631 -56.834
lclavicle -4.6118e-014 -7.95139e-014
lhumerus 7.5201 -41.3086 93.9817
lradius 58.4053
lwrist 10.5002
lhand -15.1195 52.0489
lfingers 7.12502
lthumb 11.0495 -1718.26
rfemur -46.6057 -8.16799 13.1193
rtibia 38.1061
rfoot -12.7287 -5.40388
rtoes 14.1462
lfemur -17.2159 -4.92804 -22.9615
ltibia 26.1228
lfoot -5.2373 0.179896
ltoes -28.2601
4445
root 0.614608 17.9585 -3.25013 21.6084 -4.29275 12.6784
lowerback 19.7175 -1.83419 0.898855
upperback 6.09531 -1.84905 5.87982
thorax -4.2485 -0.93291 6.2414
lowerneck -9.09833 -10.8677 -9.75743
upperneck 26.0464 -16.1452 10.2726
head 11.6654 -7.10511 3.18075
rclavicle -4.29375e-014 5.88403e-014
rhumerus 19.469 -8.02052 -77.7189
rradius 40.4805
rwrist -39.8203
rhand -38.464 -26.6385
rfingers 7.12502
rthumb -11.4868 -56.3038
lclavicle -4.29375e-014 5.88403e-014
lhumerus 7.5093 -41.1598 93.5616
lradius 58.8846
lwrist 10.5853
lhand -15.1749 52.0534
lfingers 7.12502
lthumb 10.996 -1718.25
rfemur -46.4319 -8.05389 13.2671
rtibia 38.0726
rfoot -12.8171 -5.24131
rtoes 14.1591
lfemur -17.2642 -4.50761 -23.2281
ltibia 26.1771
lfoot -5.96915 0.369512
ltoes -28.0983
